<?xml version="1.0" encoding="utf-8"?>
<!-- Generator: Adobe Illustrator 22.0.1, SVG Export Plug-In . SVG Version: 6.00 Build 0)  -->
<svg version="1.1" id="Capa_1" xmlns="http://www.w3.org/2000/svg" xmlns:xlink="http://www.w3.org/1999/xlink" x="0px" y="0px"
	 viewBox="0 0 510.2 311.8" style="enable-background:new 0 0 510.2 311.8;" xml:space="preserve">
<style type="text/css">
	.st0{fill:#F19800;}
	.st1{fill:#9D378E;}
	.st2{fill:#009CDE;}
	.st3{fill:#FFEF00;}
	.st4{fill:#98BF13;}
	.st5{fill:#FFFFFF;stroke:#000000;stroke-miterlimit:10;}
</style>
<g id="XMLID_8_">
	<g id="XMLID_49_">
		<path id="XMLID_50_" d="M41,261.1c2.7,0,4.7,0.1,6.2,0.3c2,0.3,3.7,0.9,5.1,1.8c2.3,1.5,4.1,3.7,5.4,6.5c1.3,2.9,2,6.4,2,10.5
			c0,4.4-0.7,8.1-2.1,11.1c-1.4,3-3.4,5.1-6.1,6.6c-1.3,0.7-3,1.1-5,1.4c-1.6,0.2-3.8,0.3-6.6,0.3H29.1v-38.5h9.3H41z M40.3,296.4
			c2.5,0,4.4-0.1,5.6-0.3c1.7-0.2,3.1-0.6,4.2-1.1c2-1.2,3.4-3,4.4-5.4c1-2.4,1.5-5.5,1.5-9.2c0-3.6-0.5-6.6-1.4-9
			c-0.9-2.4-2.4-4.2-4.2-5.4c-1.2-0.8-2.7-1.3-4.5-1.5c-1.2-0.1-3.2-0.2-5.9-0.2h-7.3v32.1H40.3z"/>
		<path id="XMLID_53_" d="M72.5,294.5c1.6,2,3.8,3,6.4,3c2.1,0,3.8-0.6,5.3-1.7c1.5-1.2,2.4-2.8,2.7-4.7h3.2c-0.4,2.8-1.6,5-3.7,6.7
			c-2.1,1.7-4.7,2.6-7.8,2.6c-3.7,0-6.7-1.3-8.8-3.8c-2.1-2.6-3.2-6.1-3.2-10.7c0-4.7,1.1-8.3,3.3-10.9c2.1-2.5,5.1-3.8,8.9-3.8
			c3.6,0,6.4,1.2,8.5,3.6c2.1,2.5,3.2,6,3.2,10.4v1H70C70,289.7,70.9,292.5,72.5,294.5z M87.2,283.7c0-2.8-0.8-5.2-2.5-7.2
			c-1.5-1.7-3.5-2.6-5.9-2.6c-2.5,0-4.5,0.9-6.1,2.6c-1.8,1.9-2.7,4.3-2.6,7.2H87.2z"/>
		<path id="XMLID_56_" d="M100.5,290.9c0,1.9,0.7,3.5,2.1,4.7c1.4,1.3,3.1,1.9,5.3,1.9c2.3,0,4.2-0.5,5.5-1.5c1.3-0.9,2-2.2,2-3.7
			c0-1.6-0.6-2.7-1.9-3.4c-0.8-0.5-2.6-1.1-5.5-1.8h-0.2c-3.7-0.9-6.2-1.8-7.6-2.8c-1.7-1.2-2.5-2.9-2.5-5.1c0-2.4,0.9-4.3,2.6-5.8
			c1.8-1.5,4.1-2.2,7-2.2c3.1,0,5.6,0.8,7.5,2.3c1.9,1.5,2.9,3.7,3.1,6.5h-3.3c-0.1-1.9-0.8-3.4-2.1-4.4c-1.3-1-3-1.6-5.2-1.6
			c-1.9,0-3.5,0.5-4.6,1.4c-1.1,0.8-1.6,2-1.6,3.4c0,1.7,0.7,3,2,3.8c0.9,0.5,2.8,1.1,5.8,1.8l1.3,0.3c3.1,0.7,5.2,1.6,6.5,2.7
			c1.4,1.2,2.1,2.9,2.1,5.1c0,2.3-1,4.2-2.9,5.7c-2,1.5-4.6,2.3-7.8,2.3c-3.3,0-5.9-0.9-7.9-2.6c-1.9-1.7-2.9-4-3-6.8H100.5z"/>
		<path id="XMLID_58_" d="M140.1,299.1c-1.7,0.8-3.6,1.2-5.5,1.2c-2.8,0-5.1-0.7-6.8-2.2c-1.7-1.5-2.5-3.4-2.5-5.8
			c0-1.6,0.4-3,1.2-4.2c0.7-1.2,1.9-2.1,3.4-2.7c1.1-0.6,2.5-1,4.1-1.2c1-0.2,2.5-0.3,4.5-0.5l1.5-0.1c1.6-0.1,2.8-0.4,3.5-0.8
			c0.9-0.5,1.4-1.4,1.4-2.7c0-2.2-0.5-3.7-1.6-4.6c-1.1-1-2.9-1.5-5.4-1.5c-2.5,0-4.5,0.5-5.8,1.5c-1.3,1-2,2.6-2.1,4.6h-3.2
			c0-2.7,1-4.9,3-6.5c2-1.6,4.7-2.4,8.1-2.4c3.3,0,5.9,0.7,7.6,2.1c1.8,1.4,2.6,3.5,2.6,6.3v15.1c0,1,0.1,1.6,0.3,1.9
			c0.3,0.4,0.9,0.6,1.8,0.6h1.2v2.4c-0.5,0.1-1,0.1-1.4,0.2c-0.3,0-0.6,0.1-0.9,0.1c-1.3,0-2.3-0.3-3-1s-1-1.6-1-2.9v-0.4
			C143.5,297.1,141.9,298.3,140.1,299.1z M141.9,285.7c-0.7,0.1-1.9,0.3-3.5,0.4l-3.3,0.4c-2.1,0.2-3.7,0.9-4.9,2
			c-1.1,1-1.6,2.2-1.6,3.7c0,1.6,0.6,2.8,1.7,3.8c1.2,1,2.7,1.5,4.7,1.5c2.9,0,5.3-0.8,7.1-2.3c1.8-1.6,2.7-3.6,2.7-6.3V285
			C144.1,285.3,143.1,285.5,141.9,285.7z"/>
		<path id="XMLID_61_" d="M158.3,271.8h3.2v4.8c0.8-1.9,1.9-3.3,3.3-4.2c1.4-0.9,3-1.3,4.9-1.3h0.4v3.3h-0.5c-2.6,0-4.5,0.8-5.9,2.4
			c-1.4,1.7-2.1,4.1-2.1,7.3v15.4h-3.2V271.8z"/>
		<path id="XMLID_63_" d="M175.9,271.8h3.2v4.8c0.8-1.9,1.9-3.3,3.3-4.2c1.4-0.9,3-1.3,4.9-1.3h0.4v3.3h-0.5c-2.6,0-4.5,0.8-5.9,2.4
			c-1.4,1.7-2.1,4.1-2.1,7.3v15.4h-3.2V271.8z"/>
		<path id="XMLID_65_" d="M215.1,275.7c2.1,2.7,3.2,6.1,3.2,10.1c0,3.9-1.1,7.2-3.2,10c-2.4,3.1-5.6,4.6-9.7,4.6s-7.3-1.5-9.7-4.6
			c-2.1-2.7-3.2-6-3.2-10c0-4,1.1-7.3,3.2-10.1c2.4-3,5.6-4.5,9.7-4.5S212.7,272.7,215.1,275.7z M198.3,277.6
			c-1.6,2.2-2.4,4.9-2.4,8.1c0,3.2,0.8,5.8,2.4,8c1.7,2.5,4.1,3.7,7.1,3.7c3,0,5.4-1.2,7.1-3.7c1.6-2.2,2.4-4.9,2.4-8
			c0-3.2-0.8-5.9-2.4-8.1c-1.8-2.4-4.1-3.6-7.1-3.6S200.1,275.2,198.3,277.6z"/>
		<path id="XMLID_68_" d="M226.4,261.1h3.2v38.5h-3.2V261.1z"/>
		<path id="XMLID_70_" d="M239.2,261.1h3.2v38.5h-3.2V261.1z"/>
		<path id="XMLID_72_" d="M273.3,275.7c2.1,2.7,3.2,6.1,3.2,10.1c0,3.9-1.1,7.2-3.2,10c-2.4,3.1-5.6,4.6-9.7,4.6s-7.3-1.5-9.7-4.6
			c-2.1-2.7-3.2-6-3.2-10c0-4,1.1-7.3,3.2-10.1c2.4-3,5.6-4.5,9.7-4.5S270.9,272.7,273.3,275.7z M256.6,277.6
			c-1.6,2.2-2.4,4.9-2.4,8.1c0,3.2,0.8,5.8,2.4,8c1.7,2.5,4.1,3.7,7.1,3.7c3,0,5.4-1.2,7.1-3.7c1.6-2.2,2.4-4.9,2.4-8
			c0-3.2-0.8-5.9-2.4-8.1c-1.8-2.4-4.1-3.6-7.1-3.6S258.3,275.2,256.6,277.6z"/>
		<path id="XMLID_75_" d="M304,261.1h3.5v38.5H304V261.1z"/>
		<path id="XMLID_77_" d="M317.1,271.8h3.2v4.4c1-1.7,2.3-3,3.8-3.9c1.5-0.8,3.3-1.3,5.4-1.3c1.9,0,3.6,0.3,5.1,1
			c1.4,0.7,2.5,1.7,3.3,2.9c0.5,0.8,0.8,1.7,0.9,2.9c0.1,0.8,0.2,2.1,0.2,3.9v17.7h-3.2v-17.3c0-3-0.5-5.1-1.4-6.3
			c-1-1.4-2.8-2-5.6-2c-2.6,0-4.7,0.8-6.2,2.4c-1.5,1.7-2.3,3.9-2.3,6.8v16.3h-3.2V271.8z"/>
		<path id="XMLID_79_" d="M353,271.8h5.2v2.6H353v20.2c0,1,0.1,1.8,0.4,2.2c0.3,0.5,0.9,0.8,1.7,0.8c0.3,0,0.7-0.1,1.2-0.2
			c0.3,0,0.8-0.1,1.4-0.3l0.5-0.1v2.5c-0.8,0.2-1.5,0.4-2.1,0.5s-1.2,0.2-1.8,0.2c-1.8,0-3-0.5-3.6-1.4c-0.6-0.8-0.8-2.2-0.8-4.2
			v-20.2H346v-2.6h3.8v-8h3.2V271.8z"/>
		<path id="XMLID_81_" d="M370,294.5c1.6,2,3.8,3,6.4,3c2.1,0,3.8-0.6,5.3-1.7c1.5-1.2,2.4-2.8,2.7-4.7h3.2c-0.4,2.8-1.6,5-3.7,6.7
			c-2.1,1.7-4.7,2.6-7.8,2.6c-3.7,0-6.7-1.3-8.8-3.8c-2.1-2.6-3.2-6.1-3.2-10.7c0-4.7,1.1-8.3,3.3-10.9c2.1-2.5,5.1-3.8,8.9-3.8
			c3.6,0,6.4,1.2,8.5,3.6c2.1,2.5,3.2,6,3.2,10.4v1h-20.5C367.5,289.7,368.3,292.5,370,294.5z M384.6,283.7c0-2.8-0.8-5.2-2.5-7.2
			c-1.5-1.7-3.5-2.6-5.9-2.6c-2.5,0-4.5,0.9-6.1,2.6c-1.8,1.9-2.7,4.3-2.6,7.2H384.6z"/>
		<path id="XMLID_84_" d="M419.2,296.7c0,3.1-1.1,5.6-3.4,7.4c-2.3,2-5.6,3-9.7,3c-3,0-5.4-0.7-7.4-2.2c-2-1.5-3-3.4-3.2-5.9h3.4
			c0.1,1.7,0.9,3,2.2,3.9c1.3,0.9,3,1.4,5,1.4c3.1,0,5.6-0.7,7.4-2.2c1.7-1.4,2.5-3.1,2.5-5.2v-3.4c-1.1,1.8-2.5,3.1-4.1,4.1
			c-1.7,0.9-3.5,1.4-5.6,1.4c-3.5,0-6.4-1.4-8.6-4.3c-2-2.6-3-5.8-3-9.5c0-3.8,1-7,3-9.6c2.2-2.9,5.1-4.3,8.6-4.3
			c2.1,0,3.9,0.5,5.6,1.4c1.7,0.9,3.1,2.3,4.2,4.1v-4.8h3.3V296.7z M400.3,277.4c-1.5,2-2.3,4.6-2.3,7.6c0,3,0.8,5.5,2.3,7.6
			c1.7,2.3,3.9,3.4,6.6,3.4c3,0,5.3-1.1,7-3.4c1.6-2,2.4-4.6,2.4-7.6c0-3-0.8-5.6-2.4-7.6c-1.7-2.3-4.1-3.4-7-3.4
			C404.2,274,402,275.1,400.3,277.4z"/>
		<path id="XMLID_87_" d="M428.4,271.8h3.2v4.8c0.8-1.9,1.9-3.3,3.3-4.2c1.4-0.9,3-1.3,4.9-1.3h0.4v3.3h-0.5c-2.6,0-4.5,0.8-5.9,2.4
			c-1.4,1.7-2.1,4.1-2.1,7.3v15.4h-3.2V271.8z"/>
		<path id="XMLID_89_" d="M459.7,299.1c-1.7,0.8-3.6,1.2-5.5,1.2c-2.8,0-5.1-0.7-6.8-2.2c-1.7-1.5-2.5-3.4-2.5-5.8
			c0-1.6,0.4-3,1.2-4.2c0.7-1.2,1.9-2.1,3.4-2.7c1.1-0.6,2.5-1,4.1-1.2c1-0.2,2.5-0.3,4.5-0.5l1.5-0.1c1.6-0.1,2.8-0.4,3.5-0.8
			c0.9-0.5,1.4-1.4,1.4-2.7c0-2.2-0.5-3.7-1.6-4.6c-1.1-1-2.9-1.5-5.4-1.5c-2.5,0-4.5,0.5-5.8,1.5c-1.3,1-2,2.6-2.1,4.6h-3.2
			c0-2.7,1-4.9,3-6.5c2-1.6,4.7-2.4,8.1-2.4c3.3,0,5.9,0.7,7.6,2.1c1.8,1.4,2.6,3.5,2.6,6.3v15.1c0,1,0.1,1.6,0.3,1.9
			c0.3,0.4,0.9,0.6,1.8,0.6h1.2v2.4c-0.5,0.1-1,0.1-1.4,0.2c-0.3,0-0.6,0.1-0.9,0.1c-1.3,0-2.3-0.3-3-1s-1-1.6-1-2.9v-0.4
			C463,297.1,461.4,298.3,459.7,299.1z M461.4,285.7c-0.7,0.1-1.9,0.3-3.5,0.4l-3.3,0.4c-2.1,0.2-3.7,0.9-4.9,2
			c-1.1,1-1.6,2.2-1.6,3.7c0,1.6,0.6,2.8,1.7,3.8c1.2,1,2.7,1.5,4.7,1.5c2.9,0,5.3-0.8,7.1-2.3c1.8-1.6,2.7-3.6,2.7-6.3V285
			C463.6,285.3,462.6,285.5,461.4,285.7z"/>
		<path id="XMLID_92_" d="M478,261.1h3.2v38.5H478V261.1z"/>
	</g>
	<g id="XMLID_17_">
		<path id="XMLID_18_" d="M55.2,229.7H40.1v15.6H30v-52.9c8.4,0,16.8-0.1,25.2-0.1C81.4,192.2,81.5,229.7,55.2,229.7z M40.1,220.5
			h15.1c12.9,0,12.8-18.7,0-18.7H40.1V220.5z"/>
		<path id="XMLID_21_" d="M90.3,192.4v52.8H81v-52.8H90.3z"/>
		<path id="XMLID_23_" d="M128.4,208h8.9v37.3h-8.8l-0.5-5.4c-2.1,4.4-8,6.5-12.2,6.6c-11.2,0.1-19.4-6.7-19.4-19.8
			c0-12.8,8.6-19.6,19.7-19.5c5,0,9.9,2.3,12,6L128.4,208z M105.7,226.6c0,7.1,5,11.3,11.2,11.3c14.7,0,14.7-22.6,0-22.6
			C110.7,215.3,105.7,219.5,105.7,226.6z"/>
		<path id="XMLID_26_" d="M173,245.2v-19.5c0-5.7-3.1-10-9.1-10c-5.7,0-9.6,4.8-9.6,10.4v19H145v-37.3h8.3l0.6,5.1
			c3.8-3.7,7.6-5.6,12.4-5.6c8.9,0,16,6.6,16,18.3v19.6H173z"/>
		<path id="XMLID_28_" d="M216.6,192.3V236h27.5v9.2h-37.6v-52.9H216.6z"/>
		<path id="XMLID_30_" d="M260.7,197.5c0,7.2-11,7.2-11,0C249.7,190.3,260.7,190.3,260.7,197.5z M250.5,207.8v37.4h9.3v-37.4H250.5z
			"/>
		<path id="XMLID_33_" d="M277.6,192.4V213c2.2-3.9,8.4-6,12.4-6c11,0,19.2,6.7,19.2,19.5c0,12.2-8.3,19.5-19.4,19.5
			c-4.6,0-9.3-1.5-12.2-6l-0.6,5.1h-8.7v-52.8H277.6z M278.2,226.6c0,6.7,5,11,10.9,11c6,0,10.7-4.5,10.7-11
			c0-6.7-4.7-10.9-10.7-10.9C283.3,215.7,278.2,220.1,278.2,226.6z"/>
		<path id="XMLID_36_" d="M353.5,229.9H324c0.6,4.6,4.7,7.9,11.2,7.9c3.4,0,8-1.3,10.1-3.5l6,5.8c-4,4.1-10.5,6-16.2,6
			c-13,0-20.7-7.9-20.7-19.9c0-11.3,7.8-19.5,20-19.5C347.1,206.8,354.9,214.5,353.5,229.9z M324.2,222.3h20.3
			c-0.6-4.8-4.4-7.3-9.8-7.3C329.7,215,325.6,217.4,324.2,222.3z M345.5,191.2h-11l-5.7,10.3v0.5h8.3l8.4-10.4V191.2z"/>
		<path id="XMLID_40_" d="M369.9,192.4v52.8h-9.3v-52.8H369.9z"/>
		<path id="XMLID_42_" d="M387.7,208v19.5c0,5.7,3.1,10,9.1,10c5.7,0,9.6-4.8,9.6-10.4v-19h9.3v37.3h-8.3l-0.6-5.1
			c-3.9,3.8-7.5,5.6-12.8,5.6c-9,0-15.6-6.7-15.6-18.3V208H387.7z"/>
		<path id="XMLID_44_" d="M433.2,192.4v52.8H424v-52.8H433.2z"/>
		<path id="XMLID_46_" d="M471.3,208h8.9v37.3h-8.8l-0.5-5.4c-2.1,4.4-8,6.5-12.2,6.6c-11.2,0.1-19.4-6.7-19.4-19.8
			c0-12.8,8.6-19.6,19.7-19.5c5,0,9.9,2.3,12,6L471.3,208z M448.7,226.6c0,7.1,5,11.3,11.2,11.3c14.7,0,14.7-22.6,0-22.6
			C453.6,215.3,448.7,219.5,448.7,226.6z"/>
	</g>
	<g id="XMLID_4_">
		<rect id="XMLID_3_" x="265" y="10.7" class="st0" width="39" height="144.1"/>
		<path id="XMLID_95_" d="M93.6,109.1H57.1v37.6H32.7V19.1c20.3,0,40.6-0.2,60.9-0.2C156.7,18.9,156.9,109.1,93.6,109.1z M57.1,87.1
			h36.5c31.2,0,31-45.2,0-45.2H57.1V87.1z"/>
		<path id="XMLID_98_" d="M184,19v105.4h66.4v22.2h-90.8V19H184z"/>
		<path id="XMLID_102_" d="M432.9,81.7c0.6,32.3-19.4,64.9-64.6,64.9c-15.9,0-34.9,0-50.7,0V19c15.9,0,34.9,0,50.7,0
			C412.6,19,432.3,50.1,432.9,81.7z M341.7,123.4h26.6c29.3,0,41-21.1,40.4-41.9c-0.6-19.9-12.4-39.7-40.4-39.7h-26.6V123.4z"/>
		<path id="XMLID_105_" d="M453.4,146.6V19h24.2v127.6H453.4z"/>
		<g id="XMLID_2_">
			<path id="XMLID_116_" class="st1" d="M272.5,146.6V19h24.2v127.6H272.5z"/>
			<g id="XMLID_112_">
				<path id="XMLID_115_" class="st2" d="M284.3,146.6c0,0-13.5-64.5,18-66.6C302.4,80,300.1,109.5,284.3,146.6z"/>
				<path id="XMLID_114_" class="st3" d="M267.7,19.4c0,0,27.3-9.9,35.2,60.5C302.9,79.9,292,38.6,267.7,19.4z"/>
				<path id="XMLID_113_" class="st4" d="M286.4,42c0,0-18.8-1.7-20.3,27.9c0,0,7,6.1,36.8,10.1C302.9,79.9,262.7,68,286.4,42z"/>
			</g>
		</g>
	</g>
	<rect id="XMLID_1_" y="169.6" class="st4" width="510.2" height="9"/>
</g>
<path class="st5" d="M225.6,3.5"/>
</svg>
