<svg xmlns="http://www.w3.org/2000/svg" viewBox="0 0 521.18 294.28"><defs><style>.cls-1{fill:#f46a0a;}.cls-2{fill:#f46b0a;}.cls-3{fill:#f46b0b;}.cls-4{fill:#f46a0c;}.cls-5{fill:#f36f10;}.cls-6{fill:#f46b0e;}.cls-7{fill:#f36c0c;}.cls-8{fill:#f36b0d;}.cls-9{fill:#f36b0e;}.cls-10{fill:#f26b0d;}.cls-11{fill:#f36c0d;}.cls-12{fill:#f46b0d;}.cls-13{fill:#f46a0d;}.cls-14{fill:#f16c0f;}.cls-15{fill:#fff;}.cls-16{fill:#f56a0d;}.cls-17{fill:#f56a0b;}.cls-18{fill:#f36c0e;}.cls-19{fill:#f26c0f;}.cls-20{fill:#f46b11;}.cls-21{fill:#f36c10;}.cls-22{fill:#f06e11;}.cls-23{fill:#f36d11;}.cls-24{fill:#f16e10;}.cls-25{fill:#f49550;}.cls-26{fill:#f29753;}.cls-27{fill:#f39553;}.cls-28{fill:#f39959;}.cls-29{fill:#121212;}.cls-30{fill:#0a0a0b;}.cls-31{fill:#181818;}.cls-32{fill:#1a1a1a;}.cls-33{fill:#111;}.cls-34{fill:#171717;}.cls-35{fill:#272728;}.cls-36{fill:#252525;}.cls-37{fill:#0d0d0d;}.cls-38{fill:#0a0a0a;}.cls-39{fill:#2e2d2f;}.cls-40{fill:#2a292c;}.cls-41{fill:#2d2c2f;}.cls-42{fill:#4c4c4d;}.cls-43{fill:#da7e3d;}.cls-44{fill:#f3eee8;}.cls-45{fill:#f4ecdb;}.cls-46{fill:#e9e9e9;}.cls-47{fill:#eee;}</style></defs><title>Recurso 2</title><g id="Capa_2" data-name="Capa 2"><g id="Capa_1-2" data-name="Capa 1"><path class="cls-1" d="M357.91,133.23,338,114.55c-2,4.38-.72,9.78-2.1,14.64-.52,1.82.83,4.62-2.13,5.31-2.5.58-4.38-.84-6.08-2.59-5.11-5.28-10.29-10.49-15.41-15.75-1-1-1.91-2.54-3.61-1.7-1.34.65-.9,2.23-1,3.41-.25,4.2-.28,8.42-.61,12.61-.16,2.12-.63,4.4-3.54,4.31s-4-2.15-3.56-4.74c2.46-13.56-.16-27.36,2-40.93.6-3.73.06-7.88,5.52-8.32s10.44-.33,13.33,5.62c3.27,6.71,2.15,12.81-4.84,18.24-4.07,3.17-4.08,4.74.1,7.75,4.62,3.33,8.58,7.58,14.1,12.58,0-9.68-.16-17.79.06-25.9.15-6-.58-12.21,3.28-17.63,1.48-2.08-1-4-1.05-6.26a407.41,407.41,0,0,1,2-51.1c.14-1.5-.22-3.62,2.17-4a5.29,5.29,0,0,1,6.06,3.49c2.69,6.59,5.12,13.29,7.68,19.94,1.19,3.07,2.47,6.11,4.34,10.73,1.51-10.3,3.23-18.95,3.49-27.82.05-2.05-.22-4.37,1.65-5.83a4.15,4.15,0,0,1,4.23-.19c1.83.73,1.41,2.44,1.29,3.82-.94,11.1-2.76,22.13-2.82,33.31,0,4-.27,8-.4,12-.06,1.92.07,4-2.65,4.15a4.12,4.12,0,0,1-4.52-2.39c-5.05-9.24-8.2-19.26-12.23-28.91a3.56,3.56,0,0,0-2.15-2.15c-.52,6.5-1.21,13-1.5,19.49-.2,4.62.27,9.26.21,13.89-.06,3.88-.52,7,5.16,7.88,4.82.72,6.4,5.6,6.86,10.26a12.61,12.61,0,0,1-5.33,12c-6.18,4.49-6.21,4.31-.52,9,4.48,3.71,8.81,7.61,13.93,11.32-1.39-4.75,2-9.51-.94-14.21-.81-1.32-.25-2.5.71-3.93,2.08-3.08,2.9-6.32-.79-9.3-2.53-2-2.19-4.46.75-6.06a56.58,56.58,0,0,1,22-7.06c2.4-.22,4.88,0,5.43,3s-2.38,2.61-3.82,3.22a82,82,0,0,1-10.77,3.5c-2.32.61-3.6,1.64-3.85,4.19-.41,4.26-.25,7.3,5.6,6.54,2.66-.34,7.71-2,7.83,2.3s-4.88,3.75-8.09,3.64c-7-.26-6.77,5-7.26,9.41-.55,5,2.94,6.6,7.05,7a20.79,20.79,0,0,0,8.14-.48c2.44-.73,4.12.23,4.26,3,.12,2.64-1.59,3.21-3.68,3.11-5.24-.27-10.49-.58-15.72-1-1.21-.1-2.41-1-3.27.59C361.81,133.52,360.76,136.3,357.91,133.23Z"/><path class="cls-2" d="M398.8,151.93c-.09,10.92-2,21.8-.63,32.76.29,2.34,1,5.83-2.44,6.23-3.68.44-5-2.68-5-5.88.1-11.15.08-22.32.71-33.45.32-5.69-1.05-7.79-6.95-6.44-3.2.73-6.65,1.09-9.91-.5-1.49-.73-2.55-1.62-2.22-3.34.29-1.5,1.61-1.77,2.92-1.86,3.14-.22,6.3-.32,9.43-.66,3.95-.41,5.78-2.31,5.43-6.69-1.28-16,.81-31.93,1.91-47.87.15-2.19-.8-5.5,3.13-5.82,3.4-.28,4.71,2.1,5.79,4.74,3.69,9.09,6.4,18.58,11.7,29,1.33-10.44,2.48-19.24,3.55-28.06.32-2.65-.32-6,4-5.48,3.95.52,2.6,3.68,2.44,6-.56,7.54-1.86,15-1.46,22.64a35.57,35.57,0,0,0,.43,14.08c1.72,7.51-1.48,12.11-7.62,11.92-6.79-5.77-8-14.52-11.53-22-1.07-2.25-1.3-4.86-3.1-7.75-.12,7.95-2.14,15-1.38,22.36.86,8.28,1.21,8.67,9.25,9.43,4.68,1.69,3.08,3.64.09,5.31-2.48,1.39-5.69,1.7-6.73,5C400.39,147.77,400.37,150.07,398.8,151.93Z"/><path class="cls-3" d="M263.51,136.58c1.94,0,2.73,1.81,4.16,2.63,10.44,6,11.68,16.58,2.19,23.66-4.72,3.53-3.72,5.4,0,8.33,3.4,2.69,6.55,5.71,9.81,8.58,1.29,1.11,3.69,1.15,3.51,4.14.3-3.38,0-6.31.43-9.2.07-4.32-1.63-8.64,1.1-13,1.2-1.91.91-4.67-1.78-6.6-3.22-2.32-2-4.39,1.07-6.15,6.3-3.59,13.25-5.21,20.14-6.95,2.59-.66,6.09-.66,6.87,2.73.82,3.54-3,3.42-5,4.28a28.37,28.37,0,0,1-8.47,2.38c-3.25.26-4,2.3-4.7,4.69-1.21,4.22-.68,7.11,4.81,6.19a10.71,10.71,0,0,1,3.78-.12c2.16.42,5.8-1.43,5.94,2.54.13,3.64-3.76,3.39-5.75,3.37-6.23-.06-10.55,1.27-10.88,8.62-.22,5,2,7.52,6.73,7.94a28.12,28.12,0,0,0,7.56-.06c4.84-.91,6.33.79,5,5.38l.08-.14c-6.19,2.47-12.32.15-18.47-.22-1.2-.07-3.12-.94-3.46-.49-4.71,6.26-7.32.54-10.27-1.81-5.73-4.57-9.08-11.67-15.87-15.16-.94,1.46-1.14,4-3.79,3.21s-1.39-2.91-1.61-4.68c-.52-4.1.29-8.2-.59-12.35-.84-4,.62-7.09,5.52-7.05,2.32.92,1.22,3.89,3.28,5.36,2.26-2.5,4.26-5.47,1.87-8.29-2.63-3.11-3.67,2.35-6.12,2.11-7-.46-3.71-5.25-3.66-8.68v0C259.76,140.88,259.56,136.09,263.51,136.58Z"/><path class="cls-4" d="M141.89,139.24c-4.59.17-6.09-2.21-6.33-6.6-.95-17.13,1.32-34.07,2.45-51.08.1-1.47,0-3,2.15-3.08,2.43,0,4.61.19,5.64,2.94q3.64,9.69,7.45,19.31c1.2,3,2.56,6,4.35,10.25,2.49-5.91,2.52-10.9,3.09-15.75.52-4.39,1-8.79,1.43-13.18.21-2,.66-3.72,3.31-3.64,3,.1,3.16,2,3.13,4.31-.13,11.6-3.16,23-2.79,34.59.11,3.37,0,6.75-.06,10.12,0,1.88.16,4-2.21,4.7s-4.22-.52-5.24-2.48c-1.9-3.68-3.61-7.46-5.2-11.28-2.73-6.54-5.3-13.15-8.24-20.48-2,3.38-1.48,6.47-1.78,9.4-1.12,10.66,1.11,21.45-1.26,32.06Z"/><path class="cls-5" d="M431.78,124.21a52.79,52.79,0,0,0,1.72-5.94c.46-2.65,2-3.57,4.43-3.25,2.6.35,3.43,2.14,3.16,4.54-.11,1-.6,2-.63,3.08-.26,7.46-5.29,14.14-1.86,22.55,1.6,3.95-1.86,10-3,15-1.26,5.43-3.65,10.46-4.45,16.15a22.78,22.78,0,0,1-10,16c-5.39,2.48-7-2.29-9.75-5-4-8.94-2.26-18.4-2.53-27.67.79-3.3.54-6.67.53-10,0-2.93,1-5,4.2-5.15a4.86,4.86,0,0,1,5.36,4.32,47.22,47.22,0,0,1-.08,15.69c-.78,4.95-1,9.86.64,14.83,4.32-9.75,5.75-20.24,9.26-30.34-11-.11-11.75-1.56-6.67-11.22.78-1.49,1.55-3,2.45-4.4a11.7,11.7,0,0,1,.75-1.7C427,128.79,429.39,126.52,431.78,124.21Z"/><path class="cls-6" d="M246.59,56.08c0,5.11.09,10,0,14.78-.06,2.53-.2,5.52-3.75,5.41s-4-3-3.51-5.57c2.4-13.35-.06-26.92,2-40.3.61-3.95.62-7.47,5.71-8.23,4.92-.74,9.23-.23,12.28,4.11,4.64,6.6,3.65,14-3.32,19.44-4.24,3.32-4.69,5.12-.11,8.61a76.68,76.68,0,0,1,14,13.31c1.41,1.78,4.72,3.33,2.24,6-2.8,3-5-.2-6.83-1.9-4.43-4.16-8.5-8.72-12.93-12.89C251.09,57.66,249.92,55.85,246.59,56.08Z"/><path class="cls-7" d="M278,125.9a27.44,27.44,0,0,0,4.54-9.57c2.36-9.94,5.06-19.79,7.42-29.73.75-3.19,2.83-3.1,5.23-3,3.11.08,2.63,2.41,2.24,4.07-2,8.55-4.23,17.06-6.4,25.57-1.55,6.08-3.17,12.16-7.16,17.21-2.2,2.8-4.75,5.7-8.67,5s-4.48-4.61-5.59-7.64c-2.58-7-2.93-14.36-2.25-21.76.42-4.6.85-9.2,1.19-13.8.22-2.81,1-5.18,4.36-4.91,3.05.25,3.32,2.66,3.26,5.14-.21,8.4-.45,16.81-.53,25.21C275.63,120.47,275.39,123.47,278,125.9Z"/><path class="cls-8" d="M308.37,67.8A25.83,25.83,0,0,0,313,58.55c2.41-9.73,5-19.41,7.44-29.13.69-2.72,1.76-4.71,5-4.41,3.76.34,3,3,2.43,5.13-3.66,13.66-5.21,28-12.61,40.5-2.17,3.66-4.92,6.46-9.57,5.58-4.32-.82-4.69-4.78-5.85-8.07-4.26-12.06-.54-24.17-.28-36.25.05-2.34,1.67-3.4,3.76-3.38,3,0,3.81,2.21,3.73,4.77q-.37,11.66-.88,23.3A21.33,21.33,0,0,0,308.37,67.8Z"/><path class="cls-9" d="M170.72,165.77q3.75-11.64,7.5-23.29c.43-1.32.35-3,2.41-3.21s2.93,1.25,3.88,2.61c2.65,3.81,2.15,8.47,3.07,12.68a268.29,268.29,0,0,0,7.7,28.48c.89,2.65,1.75,5.7-2.06,6.68-3.66.93-4.6-1.92-5.29-4.73-.4-1.63-.88-3.25-1.27-4.88-.71-2.9-.29-6.31-5.34-5.82-4.33.43-7.82.49-8.16,6.17-.2,3.28-1.53,6.49-2.43,9.71-.67,2.4-1.07,5.41-4.67,4.53s-3.06-4-2.28-6.21c1.05-3,1.51-6.1,2.56-8.93s0-4.8-.3-7.15C167.91,170.41,170.05,168.61,170.72,165.77Z"/><path class="cls-10" d="M441.86,68.22c-.2,1.9.31,4.4-2.53,4.94s-3.65-2-4.45-3.67c-1.12-2.42-1.37-5.24-2.32-7.76-.73-1.93-.51-5-4.05-4.48-3.19.44-6.94-.08-8.27,4s-2.35,8-3.42,12.05c-.6,2.29-1,4.93-4.21,4.22s-2.72-3.18-2.23-5.58c1.11-5.39,5.38-10.28,2.56-16.28,7.29-8.86,6.81-20.72,11.76-30.48.66-1.3,1.3-2.73,3.15-2.6,2.24.16,3.15,1.73,3.86,3.6,2.33,6.12,1.92,12.78,4,19C438.21,52.65,439.83,60.44,441.86,68.22Z"/><path class="cls-11" d="M79.66,74.27c-.09-4.91,2.84-8.39,3.38-12.58,1.54-12,7.46-22.73,10.34-34.37.48-2,.86-4.89,4.11-4.68,3,.19,3.8,2.86,4.08,4.91,1.88,13.57,6.07,26.53,9.82,39.61.68,2.39.12,4.93-2.46,5.78s-3.71-1.37-4.42-3.41-1.28-4.41-1.88-6.63c-.75-2.81-.95-6.23-5.1-5.91-3.48.27-7.21.14-8.09,5.11a89.71,89.71,0,0,1-3.36,12,4.3,4.3,0,0,1-4.9,3.06C78.87,76.93,80,74.94,79.66,74.27Z"/><path class="cls-12" d="M502.27,30.62c-5.67.64-10.9,2.81-16.26,4.56-4.2,1.37-3.13,5.19-3.21,8-.1,3.75,3.34,2.17,5.31,2.43a43.17,43.17,0,0,0,5.67-.17c1.7,0,3.51,0,3.68,2.4s-1.35,2.78-3.19,3c-2.72.29-5.42.73-8.15,1s-3.76,1.53-4.21,4.34C480.37,65.79,483,68.8,493,67.91a28,28,0,0,0,3.73-.64c2.09-.48,3.29.29,3.42,2.43.12,2,.14,4-2.71,3.91-3.37-.06-6.74,0-10.1-.19-10.12-.64-12.92-3.55-12.77-13.7.08-5.43-2.13-10.94.93-16.32,1-1.84.24-3.8-2-5.25-2.75-1.76-2.54-4.36.37-5.88,6.89-3.58,14-6.56,21.93-7.05,4-.25,6.65,1,6.44,5.55Z"/><path class="cls-13" d="M287.27,53.21c0,5.27.11,10.54-.06,15.81-.06,1.78,1.26,4.61-2.23,4.84-3.05.19-4.91-1.51-5-4.44-.25-5.26-.32-10.54-.16-15.8.2-6.94.52-13.9,1.13-20.82.36-4.09-1.26-5.16-5-4.86s-7.9,1.23-11.7-1c-1.06-.62-2.46-.56-2.41-2.27s1.31-2,2.6-2c8.39.17,16.18-3.94,24.84-2.93,4.81.55,9.88-1.48,14.87-2,2.16-.25,5.16-.63,5.52,2.58.3,2.67-2.31,3.13-4.32,3.7a46,46,0,0,1-5.52,1.28C288,27,287.94,27,287.57,38.67c-.16,4.84,0,9.69,0,14.54Z"/><path class="cls-14" d="M446.59,50.23c-1.23-5.65,2.44-13.5-2-20.86-1.59-2.62,1.06-3.53,3.43-3.43,15.12.63,25.63,20,17.69,32.75A66.59,66.59,0,0,1,453.46,72.8a4.7,4.7,0,0,1-5.2,1.14c-2.23-.88-1.61-2.74-1.63-4.27C446.53,63.8,446.59,57.93,446.59,50.23Z"/><path class="cls-15" d="M426.43,133c-1.71,3.31-3.53,6.58-5.09,10-.63,1.38-2.16,3-.42,4.57,1.31,1.18,2.75.24,4.13-.22,1.84-.61,3.74-3,5.61-.69,1.57,1.9-.27,3.81-.85,5.77-2.12,7.23-3.95,14.54-5.75,21.85-.91,3.69-2.12,7.16-5.11,10.41-3.82-6.35-2-12.91-2.09-19.19-.05-4.4.59-8.8.74-13.2.1-2.88.68-6.41-3.82-6.45-4.07,0-3.66,3.16-3.78,5.91s.23,5.49-1.2,8c-2.92-3.2,1.13-6.44-.05-9.72-.64-1.79,1-4.62-1.9-5.32-3.53-.84-2.8,2.55-3,4.13-.47,3.43-2.71,3.16-5,3.17,0-2.43-.05-4.87-.08-7.3,3.74-3.38,8.59-3.49,13.15-4.43,1.77-.37,4.15,0,4.65-2.25.45-1.94-2.07-2.26-3-3.53a2.23,2.23,0,0,1,.24-2.57c5,2,5.75-1.21,5.93-4.92.33-6.6-.31-13.27,1.56-19.74.6,4.62-.08,9.17,2.24,13.88s4.4,5.06,8.31,3.14c-.42,3.46-3.15,5.41-5.12,7.85-.68-.07-1.16-.71-1.89-.64A13.38,13.38,0,0,1,426.43,133Z"/><path class="cls-16" d="M181.7,60.86c.48-6.12.9-11.77,1.35-17.42A48,48,0,0,0,182.29,29c-1.69-7.55-1.75-7.64,5.89-6.4,14.85,2.42,20.61,14.24,11.23,25.82-6.5,8-13.39,14.83-10.83,26.25a2.87,2.87,0,0,1-2.51,3.71c-2.51.23-3.37-1.64-3.55-3.55C182.09,70.06,181.94,65.24,181.7,60.86Z"/><path class="cls-7" d="M385.7,50.5c-1.18-5.68,2.46-13.7-2-21.37-1.79-3.08,1.83-4,4.06-3.15,9.3,3.43,17.23,8.66,20.54,18.67,1.6,4.84-1.09,9.11-3.16,13.1-3.11,6-8,10.7-13,15.22-1.25,1.14-2.51,2.24-4.47,1.43s-2-2.5-2-4.19C385.69,64.31,385.7,58.42,385.7,50.5Z"/><path class="cls-17" d="M315,178.25c-2.65-4.65,1-7.82,2.51-11.62,2.88-7.38,4-15.37,7.23-22.66.91-2,.93-5.21,4.08-4.51,2.47.55,3.74,3,4.13,5.65a139,139,0,0,0,4.74,22.07c1.56,5,2.64,10.13,4.46,15,1.28,3.44.61,6.19-2.46,7.31-4.14,1.52-3.89-2.46-4.57-4.85-.91-3.22-1.64-6.49-2.45-9.75-2.81-2.61-5.79-1.56-8.77-.38-3,.46-2.8,3.35-3.93,5.23-1.27,1.16-1.85,3.75-4.22,2.77C313.75,181.7,314.39,179.84,315,178.25Z"/><path class="cls-18" d="M201.61,107.35c0,8.56-8.51,17.84-16.32,17.69-6.63-.12-12.61-6.63-12.78-13.88-.2-8.89,6.29-20,11.82-20.26A17,17,0,0,1,201.61,107.35Z"/><path class="cls-19" d="M502.18,30.77c1-2.08,1.8-4.25,3-6.22,2.65-4.53,6.58-6.94,12-6.45a3.21,3.21,0,0,1,3.19,3.28c.09,1.77-1,2.38-2.54,3-6.57,2.71-9,9-6.2,15.79,3.12,7.54,8.19,14.23,9.4,22.59,1,6.94-1.46,13.37-6.28,16-2.31,1.24-4.88,1.44-6.42-.4-2.2-2.6,1.05-3.38,2.44-4.6,3.16-2.77,2.38-6.54,2.23-9.9-.22-4.87-2.21-9.37-4.58-13.62-3.4-6.12-5.74-12.55-6.08-19.61Z"/><path class="cls-12" d="M147.69,52.75c.22-3.88.52-6.76,1.72-9.55,5.14-11.91,8.93-13.19,20.82-6.8,6.56,3.52,8.33,13.75,3.66,21.1-6.19,9.74-15.5,11.66-22.46,4.65C148.57,59.27,147.32,55.85,147.69,52.75Z"/><path class="cls-20" d="M224,124.23c-11.14-8-11.64-22.17-1.2-31.48a6.55,6.55,0,0,1,7-1.45c7,2.48,13.75,5.52,14.67,14.2.84,7.8-3.5,13-9.51,17.09-1,.69-2.13,1.21-3.2,1.81C229.1,124.84,226.49,126.07,224,124.23Z"/><path class="cls-21" d="M126.46,18c2.39-.25,4.35.48,5,2.89.53,2.1-1.28,2.73-2.83,3.48-6.21,3-8.08,7.29-6.32,14.25,2,7.92,7.39,14.39,9.45,22.33,1.79,6.92-.19,13.76-5.46,17.28-2.2,1.47-4.71,2.72-6.71.13s.81-3.31,2.17-4.82c3.08-3.4,2.82-7.65,2-11.84-1.25-6.24-4.7-11.59-7.11-17.37s-3.84-12-1.19-18.27C117.49,21.14,121.31,18.67,126.46,18Z"/><path class="cls-9" d="M236.81,48.12c.1,6.5-6.27,15.72-11.94,17.59-6,2-10.78-.2-14.4-4.85-4.77-6.13-3.12-12.69-.17-18.91,2.07-4.37,3.63-9.92,10.19-9.36,7.4.63,14.22,6.09,15.85,12.35A23.5,23.5,0,0,1,236.81,48.12Z"/><path class="cls-7" d="M209.23,135.28c3.59-.15,5.85.28,6.65,2.48.7,1.93-1.22,3-2.69,3.67-7.21,3.48-9.37,10.29-5.6,17.87,2.89,5.81,6.09,11.47,8,17.75,2.29,7.69.11,15.28-5.49,18.45-2.17,1.23-4.54,2-6.36-.05-2.4-2.69,1-3.2,2.1-4.66a12.65,12.65,0,0,0,1.95-13.1c-2.51-6.21-5.51-12.21-7.86-18.47s-2.74-12.79,1.19-18.76C203.28,137.13,206.45,135.2,209.23,135.28Z"/><path class="cls-18" d="M360.34,141.59c-7,1.31-10.14,9.57-6.25,17.46,2.77,5.61,6,11,8.05,17a19.09,19.09,0,0,1-1.68,16.37,7.86,7.86,0,0,1-8,4c-2.5-.23-4.38-2.13-1.84-4.18,8.26-6.69,4-14,1.4-21.13-1.51-4.11-4-7.87-5.42-12-2.84-8-2.42-15.68,4-22.15,2.16-2.08,4.94-2,7.63-2.17,1.83-.12,3.41.49,4,2.32S362.79,140.85,360.34,141.59Z"/><path class="cls-22" d="M254.33,136.75c.46,1.89.9,4.43-1.46,4.71-8.35,1-10.89,7.9-12.7,13.88a42.65,42.65,0,0,0,3.73,34.09c1.32,2.35,2.83,4.74,5.73,5.5,2.2.57,2.58,2.06,1.86,3.84s-2.34,1.4-3.82,1.27c-1.82-.16-3.06-1.32-4.3-2.44-15.2-13.69-16.18-43-2-57.72,3.67-3.81,7.89-5.39,13-3Z"/><path class="cls-23" d="M141.78,139.35c5.13-1,6.63,1.36,6.29,6.24-.69,10-1.07,20.12-1.49,30.18-.06,1.41-.08,3.49.74,4.11,1.41,1.06,3.19-.13,4.57-1.09,2.21-1.53,4.1-3.69,6.91-4.06,1.49-.2,3.57-1.1,4.38,1.05a3.37,3.37,0,0,1-1.55,4.32c-5.45,3.45-10.92,6.89-16.24,10.54-2.84,2-3.94.56-4.95-1.88a12.37,12.37,0,0,1-.74-5.53c.78-14.66,1.47-29.33,2.19-44Z"/><path class="cls-7" d="M63.45,35c-.38,8.19-.8,16.38-1.1,24.57-.05,1.37-.86,3.32.65,4s3-.6,4.44-1.6a42.22,42.22,0,0,1,7-4.12c1.69-.76,3.93-1.16,5,1s-.48,3.36-2.21,4.48c-4,2.61-8,5.34-11.9,8.06-2.27,1.58-4.77,3.68-7.44,2.11s-2.64-5-2.46-8c.52-8.6,1.2-17.19,1.66-25.8.24-4.4.19-8.83.15-13.25,0-2.14.35-3.75,3-3.8s3.37,1.36,3.4,3.55c0,2.94,0,5.89,0,8.84Z"/><path class="cls-3" d="M254.43,136.85c.31-2.6-1.69-4.23-2.72-6.23-8-15.59-7.81-31,1.32-46,2.71-4.46,6.75-7.47,12.37-7.3,1.63.05,3.58,0,3.91,2.28a3.2,3.2,0,0,1-2.75,3.68c-8,1.48-10,8.21-12,14.35-3.92,12.06-1.76,23.59,4.53,34.45a7,7,0,0,1,.46,1.82c.86,2.88-.05,3.91-3,2.84l-2.27,0Z"/><path class="cls-24" d="M378.65,42c-.62,9.41-1.29,18.81-1.81,28.21-.14,2.44-.73,4.09-3.54,4.07s-3.45-1.66-3.69-4c-.79-8,.7-15.89,1.37-23.81.43-5.21,1.51-10.37,1.2-15.63-.14-2.22.53-3.85,3-3.68,2.05.15,3.52,1.13,3.47,3.57C378.61,34.47,378.66,38.24,378.65,42Z"/><path class="cls-25" d="M0,7.46C.18,3,1.12-.15,6.1,0,11.3.17,15,3.19,13.84,7.49c-1.57,5.62-1.25,10.66,1.58,15.63.46.81.69,1.52.08,2.28-.89,1.08-2,.62-2.84.09C5.89,21.06,1.21,15.18,0,7.46Z"/><path class="cls-26" d="M489.44,169.22c-.27,3.2-1,5.86-3.72,7.21-3.25,1.63-6.13.15-8.67-1.81a5.07,5.07,0,0,1-1.59-6.73c2.45-4.71.78-8.92-1-13.21-.45-1.07-1.57-2.32-.22-3.37,1.16-.91,2.6,0,3.47.58A28.35,28.35,0,0,1,489.44,169.22Z"/><path class="cls-27" d="M25.37,7.3c.1-4.5.9-7.67,6-7.24,5.32.45,9,3.61,7.48,7.57-2,5.2-1.27,9.73.82,14.45.49,1.09,1.27,2.36,0,3.42s-2.54.28-3.41-.49C30.72,20.09,25.86,14.72,25.37,7.3Z"/><path class="cls-28" d="M464.23,169.27c-.51,4.22-1.84,7.68-6.77,7.44-5.32-.25-8.17-3.39-6.84-8.1a17.9,17.9,0,0,0-1.15-13.32c-.56-1.15-1.91-2.79-.44-4,1.62-1.32,3.18.09,4.46,1.06A27.44,27.44,0,0,1,464.23,169.27Z"/><path class="cls-29" d="M290.84,282.37h8.44a26.08,26.08,0,0,0-1.89,3.71c-.85,2.61,1.81,6.76-3.29,7.48-5.46.78-10.94,1.46-15.35-3.05s-5.07-13.43-1.24-18.66c3.46-4.73,12.37-6.91,17.75-4.45,1.59.73,2.52,1.75,1.84,3.39-1.17,2.8-1.9.31-3-.28-4-2.2-8.3-2.4-11.77.52-4.05,3.42-4.6,8.19-3.18,13.26,1.23,4.41,4,6.89,8.53,6.92,2,0,5,1.19,5.84-1.9C294.25,286.62,294,283.81,290.84,282.37Z"/><path class="cls-30" d="M201.23,293.51h-7.36c3.25-3.77,3.17-25.73-.59-30.84,10.5,1.66,2.83,9.61,7.21,13.78.22.07,1-1.63,2.37-2.07,5.63-1.86,9.52.62,10,6.61.27,3.54.26,7.11.58,10.64,0,.52,1.26.93,2,1.43-5.58.74-5.56.74-5.44-4.67.05-2.1.07-4.2,0-6.3-.1-2.77-1.22-5.13-4.13-5.53a5.49,5.49,0,0,0-6.31,4.14C198.61,284.84,197.78,289.33,201.23,293.51Z"/><path class="cls-31" d="M189.22,290c-3.57,4.84-8.7,4.78-13.88,3-5.36-1.81-8.55-7.44-8.08-13.61.46-6,3.31-10.44,9.14-12.3,3.64-1.16,7.49-.77,11.22.08a2.29,2.29,0,0,1,1.88,3.28c-.56,1.71-1.2,1.31-2.6.41-4.49-2.88-9.33-3-13.08,1s-3.86,9.24-1.59,14.14c2.41,5.23,7.08,6,12.23,5.2A47.72,47.72,0,0,0,189.22,290Z"/><path class="cls-32" d="M395.62,291.13c-5.24,3.94-10.48,3.9-13.86.05s-3.65-8.42-1.12-12.78,6.47-5.65,11.31-4.09a7.4,7.4,0,0,1,4.53,4c1.56,3.14.93,4.76-2.82,4.65a35.45,35.45,0,0,0-6.27.08c-1.62.24-4.32-1.26-4.68,1.49a5.84,5.84,0,0,0,3.61,6.08C389.31,292,392.47,291.22,395.62,291.13Z"/><path class="cls-22" d="M256.9,141.81c.47,3.26-1.79,8.25,4.84,7.57a1.58,1.58,0,0,1,0,2.55c-4,1.28-5.29,3-3.78,7.82,1.31,4.19,2.18,9.37-.44,14,2.42,2.15,3-1,4.46-1.54-.73,5.93-.22,12-2.38,17.76-2.06-1.38-1.81-3.6-1.84-5.61,0-2.33-.72-4-3.16-4.62,0-11.31-.83-22.65.92-33.92C255.76,144.38,255.45,142.8,256.9,141.81Z"/><path class="cls-33" d="M329.88,294.14c-6.1.06-10.34-4.15-10.27-10.19.08-5.87,4-10,9.66-10.25a10.16,10.16,0,0,1,10.65,10A9.77,9.77,0,0,1,329.88,294.14Z"/><path class="cls-34" d="M362.37,288.13c1.34,1.46,2,3.48,4,3.81,2.37.38,4.8.47,5.7-2.38s-1.13-3.7-3.28-4.35c-1.39-.43-2.82-.74-4.19-1.24-2.86-1.06-3.76-3.37-3-6,1.16-4.1,4.73-4.6,8.14-4.16,2.37.3,6.07.39,4.19,5.18-.84-.75-1.54-1.42-2.28-2a5,5,0,0,0-5.87-.45,2.32,2.32,0,0,0-1.11,2.73c.65,2.16,2.51,2.59,4.43,2.93,3.25.58,6.21,1.57,6.7,5.49a5.15,5.15,0,0,1-2.83,5.24,11.11,11.11,0,0,1-10.33.3C360.54,292.24,361.4,290.09,362.37,288.13Z"/><path class="cls-34" d="M356.25,278.75c-1.29-.95-2.33-2.12-3.61-2.56-2-.7-4.42-1-5.46,1.49-1.23,2.92,1.38,3.49,3.25,4.26,1.35.55,2.81.8,4.21,1.23a4.77,4.77,0,0,1,3.13,2.93,5.12,5.12,0,0,1-1.78,6.2c-3.34,2.6-7.26,2.29-10.83,1-2.83-1-1.21-3.4-.44-5.5,1.28,1.79,2,4,4.32,4.24,2.15.23,4.39.15,5.28-2.31,1-2.69-.82-3.8-3-4.46-1-.3-2-.47-3-.77-2.9-.87-4.84-2.5-4.52-5.86s2.92-4.62,5.67-4.88,6-.65,7.35,2.92C356.91,277.19,356.47,277.9,356.25,278.75Z"/><path class="cls-31" d="M251.8,275.78c-3.35,2.1-3.33,4,.28,5.8a4.9,4.9,0,0,0,1.18.43c4.09.81,8.62,1.92,7.14,7.31s-6.35,5.29-10.92,4.4c-3.07-.59-3-.68-2.42-5.28,1.38,0,1.27,1.42,2,2.07a5.1,5.1,0,0,0,6.31,1,3,3,0,0,0,1.76-3c-.14-2.85-2.57-3-4.5-3.5-2.93-.74-5.87-1.35-6.19-5.11-.25-2.85.82-4.9,3.87-5.5C251.68,273.87,252,274.52,251.8,275.78Z"/><path class="cls-3" d="M315,178.25c-.11,6.31,3.16,1.51,5,1.51-.75,3.26-1.52,6.51-2.24,9.78-.48,2.16,0,5-3.28,5.27-3.58.34-3.89-2.44-4.38-4.95L310,190Z"/><path class="cls-35" d="M224.23,280.44c-.43,10.17-.43,10.17,3.11,13-1.68.09-3.09.2-4.51.23s-2.83,0-4.59,0c3.64-4.7,3.49-14.27-.31-18.66,2.5.08,5.06-2.87,6.29,1.53A5,5,0,0,1,224.23,280.44Z"/><path class="cls-36" d="M308.78,279.69c.34,4.57-2.33,9.77,2.44,13.72h-8c3.41-5.09,1.59-10.67,1.51-16,0-2.71-.67-2.7,2.78-2.82C308.72,276.1,308.82,277.88,308.78,279.69Z"/><path class="cls-37" d="M407.73,278.5c-1.46,5.08-2.87,10.15,1.06,15h-7.54c3.31-4.24,3.21-14.69-.38-18.86,2.18.54,4.62-2,5.69,1.57A4.6,4.6,0,0,1,407.73,278.5Z"/><path class="cls-38" d="M242.65,293.59H235.6c3-4.82,2.65-14.54-.5-18.67,4.41-1.53,5.58.13,5.54,4.65S238.85,289,242.65,293.59Z"/><path class="cls-3" d="M254.62,179.71c1.1-.77,1.56-2.75,3.39-2.11s1.36,2.32,1.4,3.7c.1,2.88.15,5.77.21,8.64l-.06.06a4.13,4.13,0,0,1-5.33,0C252.86,186.5,254.82,183.15,254.62,179.71Z"/><path class="cls-15" d="M360.34,141.59c2-4.69.86-6.64-3.77-6.06a56.34,56.34,0,0,0-5.95,1.39c.68-4.69,5.36-1.48,7.29-3.69,2.23,1.06,3.42-1.24,5.21-1.62C361.71,134.8,366.49,139.72,360.34,141.59Z"/><path class="cls-39" d="M308.78,279.69c-1.83-1.35-1.11-3.33-1.26-5.09,2.18,2.23,3.54-.56,5.31-.87a3.72,3.72,0,0,1,3.51.81,2.34,2.34,0,0,1,.21,2.9c-1,2-2.07.11-3-.14C311.17,276.72,310.14,278.48,308.78,279.69Z"/><path class="cls-40" d="M224.23,280.44v-3.86a34.09,34.09,0,0,1,3.55-2.51,3.68,3.68,0,0,1,4.13.22,2.19,2.19,0,0,1,.59,2.81c-.94,2.47-2.24.51-3.43.2C226.34,276.6,225.6,279,224.23,280.44Z"/><path class="cls-41" d="M407.73,278.5c-1.44-.2-2-.9-1.17-2.26a12.33,12.33,0,0,0,2.16-1.14c1.73-1.41,3.7-2.44,5.53-.76,1.31,1.2,2.24,3.28-.9,3.7-.91.11-1.92-.78-2.85-.71A9.84,9.84,0,0,0,407.73,278.5Z"/><path class="cls-22" d="M256.6,136.77a2.78,2.78,0,0,0,3-2.84c1.77.21,2.87,1.41,3.94,2.65-1.86,2.16-2.89,5.39-6.6,5.21C257.79,140.05,257.16,138.41,256.6,136.77Z"/><path class="cls-15" d="M283.59,174.72c1.5,2.91,1.15,6,.9,9.6a9.29,9.29,0,0,1-4.84-4.54C283.22,179.85,281.47,175.78,283.59,174.72Z"/><path class="cls-42" d="M251.8,275.78l-1.52-1.41c4.42-1.63,8.15-1.81,9.72,5.39C256.7,277.69,254.8,275.34,251.8,275.78Z"/><path class="cls-43" d="M411.34,187.34c3.64.91,5.06,6.13,9.75,5C415.61,195,414.28,194.29,411.34,187.34Z"/><path class="cls-18" d="M323.9,174.53c3.05-2.58,6.07-4.8,8.77.38Z"/><path class="cls-22" d="M254.23,190l5.33,0c.34,1.82.17,3.42-2.16,3.45S254,192.34,254.23,190Z"/><path class="cls-15" d="M170.72,165.77c.25,3.49-1.51,5.56-4.68,6.64C166.43,169.37,169,167.83,170.72,165.77Z"/><path class="cls-3" d="M224,124.23l7.74.17C229.08,125.88,226.43,128.83,224,124.23Z"/><path class="cls-15" d="M307.94,92.55c.85-2.91-.1-6.69,4.58-6.29,3.26.28,4.21,2.75,4.05,5.24-.28,4.31-2.48,9.65-6.28,9.53C306.21,100.91,310.26,95,307.94,92.55Z"/><path class="cls-15" d="M337.72,102.72c0-4.83-.09-8.51,0-12.17.07-1.9-.59-4.47,2.9-4.23,2.67.18,4.37,1.35,4.78,4C346.3,96,342.85,99,337.72,102.72Z"/><path class="cls-15" d="M413.74,131.85c0,.74,0,1.48,0,2.22-1.39,3.22-4.59,1.51-6.8,2.5-2.31.05-4.63.07-6.94.14-1.7,0-2.78-.53-2.95-2.43a125.44,125.44,0,0,1,1.82-36.94C404.28,110,407.69,121.51,413.74,131.85Z"/><path class="cls-5" d="M407,136.57l6.8-2.5c2.86-.18,5.91.22,6,3.61s-2.77,4-5.73,4.08c-5.23.17-10.26,1.57-15.29,2.87,1.47-4,5-4.54,8.53-5.57C410,138.25,409.64,137.12,407,136.57Z"/><path class="cls-44" d="M261.76,151.93l0-2.55c.29-2.6.57-5.28,4.3-4.53,3,.62,4,2.87,3.84,5.62C269.61,155,267,158,263,160.78,261.29,157.63,262.59,154.59,261.76,151.93Z"/><path class="cls-15" d="M426.43,133c-3.44-.3-4.07-2.74-4.93-6.29,3,1.52,3.94,3.6,5.16,5.4A.72.72,0,0,1,426.43,133Z"/><path class="cls-15" d="M247.66,34.37c.05-.79.09-2.45.3-4.1s1.46-2.34,3.11-2.34c1.47,0,2.7-.07,3.64,1.61,2,3.64-.51,11.63-4.37,13-1.69.62-2.24-.16-2.32-1.69C247.92,39,247.81,37.12,247.66,34.37Z"/><path class="cls-15" d="M180.62,157.46c2.19,2.6,2,5.48,2.77,8,.32,1.06.74,2.81-.8,3.25a7.15,7.15,0,0,1-4.22-.19c-1.44-.53-1.27-2.13-.67-3.25C179,162.9,178.18,159.8,180.62,157.46Z"/><path class="cls-15" d="M427.06,40c2.36,2.75,1.65,5.85,2.3,8.6.59,2.46-.59,3.46-3,3.31-2.65-.17-3.07-1.92-2.44-3.91C424.75,45.34,425.94,42.8,427.06,40Z"/><path class="cls-45" d="M97.21,40.87c.6,2.72,1.33,5.43,1.75,8.18s-1.72,2.76-3.63,2.8c-2.58,0-2.54-1.27-1.83-3.21.9-2.5,1.59-5.08,2.38-7.63Z"/><path class="cls-15" d="M453.26,62.78c0-8-.06-15.1.05-22.25,0-1.58-.06-3.78,1.71-4.36s3,1.28,4.2,2.36c3.61,3.27,4.23,10.31,1.38,15.79C459,57.4,457.62,60.77,453.26,62.78Z"/><path class="cls-15" d="M197.51,37c-.56,1.8-.72,3.92-1.8,5.32-1.58,2-2.15,6.33-5.14,5.54-2.56-.67-1-4.41-1.15-6.83-.08-1.67-.43-3.33-.49-5-.08-2-1.06-4.65.59-6,1.4-1.13,3.64.08,5.23,1.13C196.78,32.57,198.24,34.32,197.51,37Z"/><path class="cls-15" d="M392.28,63.35c0-8.68-.06-16.4,0-24.12,0-3.58,1.57-3.69,4.3-1.86,4.6,3.08,6.59,9.18,3.91,15.11C398.82,56.22,397,60.13,392.28,63.35Z"/><path class="cls-15" d="M328.39,157.62a21.55,21.55,0,0,1,2,8.89c.17,2.35-1.23,2.81-3.15,2.71s-3.37-.94-2.61-3.11C325.6,163.31,324.66,159.66,328.39,157.62Z"/><path class="cls-15" d="M194.56,104c.09,7.76-2.73,11.51-6.68,14.42a3.69,3.69,0,0,1-5.08-.57c-2.61-2.65-4.48-5.45-3.75-9.39.66-3.6,1.85-6.45,6.44-5.42.42.09,1-.65,1.55-1C191.79,99.28,194.46,100.84,194.56,104Z"/><path class="cls-15" d="M163,42.86c2.86-1.77,4.58-.82,5.8,2.16,2.05,5-1.76,13.8-6.81,15.31-3.36,1-8-3.86-7.88-8.65,0-2,1.08-4,1.66-6C157.63,43.38,161.49,46.14,163,42.86Z"/><path class="cls-15" d="M163,42.86c-1.14,4.19-4.74,2.09-7.23,2.82C156.72,41.05,161.12,45.2,163,42.86Z"/><path class="cls-15" d="M237.12,108c.44,4.27-2.82,7.34-6.24,10.16a3.89,3.89,0,0,1-5.25-.06c-3.21-2.87-4.75-6.52-3.71-10.76.51-2.09,1.18-4.76,4.33-4.41a4.32,4.32,0,0,0,2.89-.41C235.2,99.32,237.09,100.47,237.12,108Z"/><path class="cls-15" d="M229.4,49.32c.43,4.59-2.87,7.61-6.32,10.4-1.88,1.53-3.83,1.07-5.59-.71-2.68-2.72-4.24-5.87-3.27-9.62.84-3.21,2-6.56,6.68-5.15.26.08.67-.47,1-.66C227.59,40.64,229.48,42,229.4,49.32Z"/><path class="cls-46" d="M382.17,281.67c2.69-5.17,5.15-6.46,8.62-5.32,1.45.47,3.08,2.31,2.31,3.16C390.42,282.45,386.8,280,382.17,281.67Z"/><path class="cls-47" d="M336.59,284.31c-.73,4.54-2.37,8.2-7.07,7.84S322.8,288,323,283.6s1.89-8.14,7.16-7.63C335.21,276.47,336,280.66,336.59,284.31Z"/></g></g></svg>